{"title":"Kill Zombie! aka Zombibi (2012) WEBRip","uid":8341782,"size":1083314533,"categoryP":"video","categoryS":"movies","magnet":"?xt=urn:btih:b5725b8ee3dce4926822407a248812ae903c3a88&amp;dn=Kill+Zombie%21+aka+Zombibi+%282012%29+WEBRip&amp;tr=udp%3A%2F%2Ftracker.openbittorrent.com%3A80&amp;tr=udp%3A%2F%2Fopen.demonii.com%3A1337&amp;tr=udp%3A%2F%2Ftracker.coppersurfer.tk%3A6969&amp;tr=udp%3A%2F%2Fexodus.desync.com%3A6969","seeders":4,"leechers":0,"uploader":"RadioResearch","files":3,"time":1365110190,"description":"*******************************************************************************\n                    Kill Zombie! aka Zombibi (2012) WEBRip\n*******************************************************************************\n\n-------------------------------------------------------------------------------\n                              General Information\n-------------------------------------------------------------------------------\nType.................: Movie\n\n\n\nVideo Format.........: AVI\nVideo Bitrate........: 1690\nResolution...........: 640 x 360\nColor................: 8 bit\nFPS..................: 29.97\nSource...............: WEB 16:9\nOriginal Format......: NTSC\nGenre................: Horror/Comedy\nIMDb Rating..........: 4.7\nMovie Information....: http://www.imdb.com/title/tt2084934/\n\n-------------------------------------------------------------------------------\n                               Post Information\n-------------------------------------------------------------------------------\nPosted by............: RadioResearch\nPosted on............: 4/4/2013\n\n-------------------------------------------------------------------------------\n                                 Release Notes\n-------------------------------------------------------------------------------\nDutch with hard-coded English subs!\n\nThe bizarre story takes place in Amsterdam-West, where a virus turns people into \nbloodthirsty zombies. Although much blood is flowing and many limbs chopped off, \nthere is a lot to laugh at in this bizarre horror comedy. \n\nAn excellent Dutch entry into the horror genre.  Has been posted here before but \nwithout subtitles, leaving non-Dutch speakers perhaps not understanding what was \ngoing on.  This is an excellent indie film.  Think Dawn of the Dead + Evil Dead \nslapstick.  Well worth the time invested watching it!  So crack open a can of \nHeineken, Orangeboom or Konink (maybe with a Ketel Een chaser) and enjoy Dutch \nhorror at its finest!\n\nEnjoy!\n\nRadioResearch\n\nGeneral\nComplete name                            : G:Kill Zombie! aka Zombibi WEBRip\nKill Zombie!.avi\nFormat                                   : AVI\nFormat/Info                              : Audio Video Interleave\nFile size                                : 1.01 GiB\nDuration                                 : 1h 25mn\nOverall bit rate                         : 1 690 Kbps\n\nVideo\nID                                       : 0\nFormat                                   : MPEG-4 Visual\nFormat profile                           : Simple@L3\nFormat settings, BVOP                    : No\nFormat settings, QPel                    : No\nFormat settings, GMC                     : No warppoints\nFormat settings, Matrix                  : Default (H.263)\nCodec ID                                 : XVID\nCodec ID/Hint                            : XviD\nDuration                                 : 1h 25mn\nBit rate                                 : 1 549 Kbps\nWidth                                    : 640 pixels\nHeight                                   : 360 pixels\nDisplay aspect ratio                     : 16:9\nFrame rate                               : 29.970 fps\nOriginal frame rate                      : 29.000 fps\nColor space                              : YUV\nChroma subsampling                       : 4:2:0\nBit depth                                : 8 bits\nScan type                                : Progressive\nCompression mode                         : Lossy\nBits/(Pixel*Frame)                       : 0.224\nStream size                              : 947 MiB (92%)\nWriting library                          : XviD 1.2.1 (UTC 2008-12-04)\n\nAudio\nID                                       : 1\nFormat                                   : MPEG Audio\nFormat version                           : Version 1\nFormat profile                           : Layer 3\nMode                                     : Joint stereo\nMode extension                           : MS Stereo\nCodec ID                                 : 55\nCodec ID/Hint                            : MP3\nDuration                                 : 1h 25mn\nBit rate mode                            : Constant\nBit rate                                 : 128 Kbps\nChannel(s)                               : 2 channels\nSampling rate                            : 44.1 KHz\nCompression mode                         : Lossy\nStream size                              : 78.2 MiB (8%)\nAlignment                                : Aligned on interleaves\nInterleave, duration                     : 26 ms (0.78 video frame)\nWriting library                          : LAME3.98.2\n\n\n\n\n-------------------------------------------------------------------------------\nGenerated with Cool NFO Creator - http://fly.to/coolbeans\n-------------------------------------------------------------------------------\n","torrent":{"xt":"urn:btih:b5725b8ee3dce4926822407a248812ae903c3a88","amp;dn":"Kill+Zombie%21+aka+Zombibi+%282012%29+WEBRip","amp;tr":["udp%3A%2F%2Ftracker.openbittorrent.com%3A80","udp%3A%2F%2Fopen.demonii.com%3A1337","udp%3A%2F%2Ftracker.coppersurfer.tk%3A6969","udp%3A%2F%2Fexodus.desync.com%3A6969"],"infoHash":"b5725b8ee3dce4926822407a248812ae903c3a88","infoHashBuffer":{"type":"Buffer","data":[181,114,91,142,227,220,228,146,104,34,64,122,36,136,18,174,144,60,58,136]},"announce":[],"urlList":[]}}